<svg xmlns="http://www.w3.org/2000/svg" width="1000" height="430" viewBox="0 0 1000 430" role="img" aria-labelledby="title desc">
  <title id="title">Dense MLP configuration properties</title>
  <desc id="desc">A dense neural network diagram showing input dimension, hidden layer width, number of hidden layers, activation functions, and scalar output dimension.</desc>
  <defs>
    <marker id="arrow" viewBox="0 0 10 10" refX="9" refY="5" markerWidth="8" markerHeight="8" orient="auto">
      <path d="M 0 0 L 10 5 L 0 10 z" fill="#1f2937"/>
    </marker>
    <style>
      .bg { fill: #ffffff; }
      .panel { fill: #f8fafc; stroke: #cbd5e1; stroke-width: 1.4; }
      .input { fill: #dbeafe; stroke: #2563eb; stroke-width: 1.5; }
      .hidden { fill: #dcfce7; stroke: #16a34a; stroke-width: 1.5; }
      .output { fill: #fee2e2; stroke: #dc2626; stroke-width: 1.5; }
      .conn { stroke: #64748b; stroke-width: 1.15; opacity: 0.8; }
      .arrow { stroke: #1f2937; stroke-width: 2; fill: none; marker-end: url(#arrow); }
      .label { font-family: Arial, Helvetica, sans-serif; font-size: 15px; font-weight: 700; fill: #0f172a; }
      .small { font-family: Arial, Helvetica, sans-serif; font-size: 12px; fill: #475569; }
      .mono { font-family: "SFMono-Regular", Consolas, "Liberation Mono", monospace; font-size: 12px; fill: #0f172a; }
      .node { fill: #ffffff; stroke: #334155; stroke-width: 1.3; }
    </style>
  </defs>

  <rect class="bg" x="0" y="0" width="1000" height="430"/>
  <rect class="panel" x="35" y="35" width="930" height="360" rx="10"/>

  <text class="label" x="83" y="70">Input Layer</text>
  <text class="small" x="65" y="92">input_dim = number of features</text>
  <text class="mono" x="63" y="112">[axis coordinates, parameters]</text>

  <text class="label" x="366" y="70">Hidden Layers</text>
  <text class="small" x="334" y="92">hidden_dim = nodes per hidden layer</text>
  <text class="small" x="350" y="112">hidden_layers = number of columns</text>

  <text class="label" x="812" y="70">Readout</text>
  <text class="small" x="771" y="92">output_dim = output width</text>
  <text class="mono" x="800" y="112">usually 1</text>

  <g>
    <line class="conn" x1="145" y1="140" x2="310" y2="150"/>
    <line class="conn" x1="145" y1="140" x2="310" y2="185"/>
    <line class="conn" x1="145" y1="140" x2="310" y2="220"/>
    <line class="conn" x1="145" y1="140" x2="310" y2="255"/>
    <line class="conn" x1="145" y1="165" x2="310" y2="150"/>
    <line class="conn" x1="145" y1="165" x2="310" y2="185"/>
    <line class="conn" x1="145" y1="165" x2="310" y2="220"/>
    <line class="conn" x1="145" y1="165" x2="310" y2="255"/>
    <line class="conn" x1="145" y1="190" x2="310" y2="150"/>
    <line class="conn" x1="145" y1="190" x2="310" y2="185"/>
    <line class="conn" x1="145" y1="190" x2="310" y2="220"/>
    <line class="conn" x1="145" y1="190" x2="310" y2="255"/>
    <line class="conn" x1="145" y1="215" x2="310" y2="150"/>
    <line class="conn" x1="145" y1="215" x2="310" y2="185"/>
    <line class="conn" x1="145" y1="215" x2="310" y2="220"/>
    <line class="conn" x1="145" y1="215" x2="310" y2="255"/>
    <line class="conn" x1="145" y1="240" x2="310" y2="150"/>
    <line class="conn" x1="145" y1="240" x2="310" y2="185"/>
    <line class="conn" x1="145" y1="240" x2="310" y2="220"/>
    <line class="conn" x1="145" y1="240" x2="310" y2="255"/>
    <line class="conn" x1="145" y1="265" x2="310" y2="150"/>
    <line class="conn" x1="145" y1="265" x2="310" y2="185"/>
    <line class="conn" x1="145" y1="265" x2="310" y2="220"/>
    <line class="conn" x1="145" y1="265" x2="310" y2="255"/>

    <line class="conn" x1="310" y1="150" x2="455" y2="150"/>
    <line class="conn" x1="310" y1="150" x2="455" y2="185"/>
    <line class="conn" x1="310" y1="150" x2="455" y2="220"/>
    <line class="conn" x1="310" y1="150" x2="455" y2="255"/>
    <line class="conn" x1="310" y1="185" x2="455" y2="150"/>
    <line class="conn" x1="310" y1="185" x2="455" y2="185"/>
    <line class="conn" x1="310" y1="185" x2="455" y2="220"/>
    <line class="conn" x1="310" y1="185" x2="455" y2="255"/>
    <line class="conn" x1="310" y1="220" x2="455" y2="150"/>
    <line class="conn" x1="310" y1="220" x2="455" y2="185"/>
    <line class="conn" x1="310" y1="220" x2="455" y2="220"/>
    <line class="conn" x1="310" y1="220" x2="455" y2="255"/>
    <line class="conn" x1="310" y1="255" x2="455" y2="150"/>
    <line class="conn" x1="310" y1="255" x2="455" y2="185"/>
    <line class="conn" x1="310" y1="255" x2="455" y2="220"/>
    <line class="conn" x1="310" y1="255" x2="455" y2="255"/>

    <line class="conn" x1="455" y1="150" x2="600" y2="150"/>
    <line class="conn" x1="455" y1="150" x2="600" y2="185"/>
    <line class="conn" x1="455" y1="150" x2="600" y2="220"/>
    <line class="conn" x1="455" y1="150" x2="600" y2="255"/>
    <line class="conn" x1="455" y1="185" x2="600" y2="150"/>
    <line class="conn" x1="455" y1="185" x2="600" y2="185"/>
    <line class="conn" x1="455" y1="185" x2="600" y2="220"/>
    <line class="conn" x1="455" y1="185" x2="600" y2="255"/>
    <line class="conn" x1="455" y1="220" x2="600" y2="150"/>
    <line class="conn" x1="455" y1="220" x2="600" y2="185"/>
    <line class="conn" x1="455" y1="220" x2="600" y2="220"/>
    <line class="conn" x1="455" y1="220" x2="600" y2="255"/>
    <line class="conn" x1="455" y1="255" x2="600" y2="150"/>
    <line class="conn" x1="455" y1="255" x2="600" y2="185"/>
    <line class="conn" x1="455" y1="255" x2="600" y2="220"/>
    <line class="conn" x1="455" y1="255" x2="600" y2="255"/>

    <line class="conn" x1="600" y1="150" x2="820" y2="215"/>
    <line class="conn" x1="600" y1="185" x2="820" y2="215"/>
    <line class="conn" x1="600" y1="220" x2="820" y2="215"/>
    <line class="conn" x1="600" y1="255" x2="820" y2="215"/>
  </g>

  <circle class="input" cx="145" cy="140" r="12"/>
  <circle class="input" cx="145" cy="165" r="12"/>
  <circle class="input" cx="145" cy="190" r="12"/>
  <circle class="input" cx="145" cy="215" r="12"/>
  <circle class="input" cx="145" cy="240" r="12"/>
  <circle class="input" cx="145" cy="265" r="12"/>

  <circle class="hidden" cx="310" cy="150" r="12"/>
  <circle class="hidden" cx="310" cy="185" r="12"/>
  <circle class="hidden" cx="310" cy="220" r="12"/>
  <circle class="hidden" cx="310" cy="255" r="12"/>

  <circle class="hidden" cx="455" cy="150" r="12"/>
  <circle class="hidden" cx="455" cy="185" r="12"/>
  <circle class="hidden" cx="455" cy="220" r="12"/>
  <circle class="hidden" cx="455" cy="255" r="12"/>

  <circle class="hidden" cx="600" cy="150" r="12"/>
  <circle class="hidden" cx="600" cy="185" r="12"/>
  <circle class="hidden" cx="600" cy="220" r="12"/>
  <circle class="hidden" cx="600" cy="255" r="12"/>

  <circle class="output" cx="820" cy="215" r="13"/>

  <path class="arrow" d="M 302 300 L 608 300"/>
  <text class="small" x="365" y="326">activation applied after each hidden linear layer</text>
  <text class="mono" x="420" y="348">activation(linear(x))</text>
</svg>
