<svg xmlns="http://www.w3.org/2000/svg" width="1000" height="430" viewBox="0 0 1000 430" role="img" aria-labelledby="title desc">
  <title id="title">Dense MLP configuration properties</title>
  <desc id="desc">A dense neural network diagram showing input dimension, hidden layer width, number of hidden layers, activation functions, and scalar output dimension.</desc>
  <defs>
    <marker id="arrow" viewBox="0 0 10 10" refX="9" refY="5" markerWidth="8" markerHeight="8" orient="auto">
      <path d="M 0 0 L 10 5 L 0 10 z" fill="#1f2937"/>
    </marker>
    <style>
      .bg { fill: #ffffff; }
      .panel { fill: #f8fafc; stroke: #cbd5e1; stroke-width: 1.4; }
      .input { fill: #dbeafe; stroke: #2563eb; stroke-width: 1.5; }
      .hidden { fill: #dcfce7; stroke: #16a34a; stroke-width: 1.5; }
      .output { fill: #fee2e2; stroke: #dc2626; stroke-width: 1.5; }
      .conn { stroke: #64748b; stroke-width: 1.15; opacity: 0.8; }
      .arrow { stroke: #1f2937; stroke-width: 2; fill: none; marker-end: url(#arrow); }
      .label { font-family: Arial, Helvetica, sans-serif; font-size: 15px; font-weight: 700; fill: #0f172a; }
      .small { font-family: Arial, Helvetica, sans-serif; font-size: 12px; fill: #475569; }
      .mono { font-family: "SFMono-Regular", Consolas, "Liberation Mono", monospace; font-size: 12px; fill: #0f172a; }
    </style>
  </defs>

  <rect class="bg" x="0" y="0" width="1000" height="430"/>
  <rect class="panel" x="35" y="35" width="930" height="360" rx="10"/>

  <text class="label" x="110" y="70">Input Layer</text>
  <text class="small" x="83" y="92">input_dim = number of features</text>
  <text class="mono" x="67" y="112">[axis coordinates, parameters]</text>

  <text class="label" x="430" y="70">Hidden Layers</text>
  <text class="small" x="385" y="92">hidden_dim = nodes per hidden layer</text>
  <text class="small" x="402" y="112">hidden_layers = number of columns</text>

  <text class="label" x="778" y="70">Readout</text>
  <text class="small" x="747" y="92">output_dim = output width</text>
  <text class="mono" x="780" y="112">usually 1</text>

  <g>
    <line class="conn" x1="150" y1="130" x2="315" y2="150"/>
    <line class="conn" x1="150" y1="130" x2="315" y2="190"/>
    <line class="conn" x1="150" y1="130" x2="315" y2="230"/>
    <line class="conn" x1="150" y1="130" x2="315" y2="270"/>
    <line class="conn" x1="150" y1="162" x2="315" y2="150"/>
    <line class="conn" x1="150" y1="162" x2="315" y2="190"/>
    <line class="conn" x1="150" y1="162" x2="315" y2="230"/>
    <line class="conn" x1="150" y1="162" x2="315" y2="270"/>
    <line class="conn" x1="150" y1="194" x2="315" y2="150"/>
    <line class="conn" x1="150" y1="194" x2="315" y2="190"/>
    <line class="conn" x1="150" y1="194" x2="315" y2="230"/>
    <line class="conn" x1="150" y1="194" x2="315" y2="270"/>
    <line class="conn" x1="150" y1="226" x2="315" y2="150"/>
    <line class="conn" x1="150" y1="226" x2="315" y2="190"/>
    <line class="conn" x1="150" y1="226" x2="315" y2="230"/>
    <line class="conn" x1="150" y1="226" x2="315" y2="270"/>
    <line class="conn" x1="150" y1="258" x2="315" y2="150"/>
    <line class="conn" x1="150" y1="258" x2="315" y2="190"/>
    <line class="conn" x1="150" y1="258" x2="315" y2="230"/>
    <line class="conn" x1="150" y1="258" x2="315" y2="270"/>
    <line class="conn" x1="150" y1="290" x2="315" y2="150"/>
    <line class="conn" x1="150" y1="290" x2="315" y2="190"/>
    <line class="conn" x1="150" y1="290" x2="315" y2="230"/>
    <line class="conn" x1="150" y1="290" x2="315" y2="270"/>

    <line class="conn" x1="315" y1="150" x2="480" y2="150"/>
    <line class="conn" x1="315" y1="150" x2="480" y2="190"/>
    <line class="conn" x1="315" y1="150" x2="480" y2="230"/>
    <line class="conn" x1="315" y1="150" x2="480" y2="270"/>
    <line class="conn" x1="315" y1="190" x2="480" y2="150"/>
    <line class="conn" x1="315" y1="190" x2="480" y2="190"/>
    <line class="conn" x1="315" y1="190" x2="480" y2="230"/>
    <line class="conn" x1="315" y1="190" x2="480" y2="270"/>
    <line class="conn" x1="315" y1="230" x2="480" y2="150"/>
    <line class="conn" x1="315" y1="230" x2="480" y2="190"/>
    <line class="conn" x1="315" y1="230" x2="480" y2="230"/>
    <line class="conn" x1="315" y1="230" x2="480" y2="270"/>
    <line class="conn" x1="315" y1="270" x2="480" y2="150"/>
    <line class="conn" x1="315" y1="270" x2="480" y2="190"/>
    <line class="conn" x1="315" y1="270" x2="480" y2="230"/>
    <line class="conn" x1="315" y1="270" x2="480" y2="270"/>

    <line class="conn" x1="480" y1="150" x2="645" y2="150"/>
    <line class="conn" x1="480" y1="150" x2="645" y2="190"/>
    <line class="conn" x1="480" y1="150" x2="645" y2="230"/>
    <line class="conn" x1="480" y1="150" x2="645" y2="270"/>
    <line class="conn" x1="480" y1="190" x2="645" y2="150"/>
    <line class="conn" x1="480" y1="190" x2="645" y2="190"/>
    <line class="conn" x1="480" y1="190" x2="645" y2="230"/>
    <line class="conn" x1="480" y1="190" x2="645" y2="270"/>
    <line class="conn" x1="480" y1="230" x2="645" y2="150"/>
    <line class="conn" x1="480" y1="230" x2="645" y2="190"/>
    <line class="conn" x1="480" y1="230" x2="645" y2="230"/>
    <line class="conn" x1="480" y1="230" x2="645" y2="270"/>
    <line class="conn" x1="480" y1="270" x2="645" y2="150"/>
    <line class="conn" x1="480" y1="270" x2="645" y2="190"/>
    <line class="conn" x1="480" y1="270" x2="645" y2="230"/>
    <line class="conn" x1="480" y1="270" x2="645" y2="270"/>

    <line class="conn" x1="645" y1="150" x2="810" y2="210"/>
    <line class="conn" x1="645" y1="190" x2="810" y2="210"/>
    <line class="conn" x1="645" y1="230" x2="810" y2="210"/>
    <line class="conn" x1="645" y1="270" x2="810" y2="210"/>
  </g>

  <circle class="input" cx="150" cy="130" r="12"/>
  <circle class="input" cx="150" cy="162" r="12"/>
  <circle class="input" cx="150" cy="194" r="12"/>
  <circle class="input" cx="150" cy="226" r="12"/>
  <circle class="input" cx="150" cy="258" r="12"/>
  <circle class="input" cx="150" cy="290" r="12"/>

  <circle class="hidden" cx="315" cy="150" r="12"/>
  <circle class="hidden" cx="315" cy="190" r="12"/>
  <circle class="hidden" cx="315" cy="230" r="12"/>
  <circle class="hidden" cx="315" cy="270" r="12"/>

  <circle class="hidden" cx="480" cy="150" r="12"/>
  <circle class="hidden" cx="480" cy="190" r="12"/>
  <circle class="hidden" cx="480" cy="230" r="12"/>
  <circle class="hidden" cx="480" cy="270" r="12"/>

  <circle class="hidden" cx="645" cy="150" r="12"/>
  <circle class="hidden" cx="645" cy="190" r="12"/>
  <circle class="hidden" cx="645" cy="230" r="12"/>
  <circle class="hidden" cx="645" cy="270" r="12"/>

  <circle class="output" cx="810" cy="210" r="13"/>

  <path class="arrow" d="M 307 320 L 653 320"/>
  <text class="small" x="391" y="346">activation applied after each hidden linear layer</text>
  <text class="mono" x="445" y="368">activation(linear(x))</text>
</svg>
