<svg xmlns="http://www.w3.org/2000/svg" width="1180" height="820" viewBox="0 0 1180 820" role="img" aria-labelledby="title desc">
  <title id="title">Traditional vector-output emulation compared with tiled scalar-output emulation</title>
  <desc id="desc">A three-row schematic. The top row shows a traditional emulator mapping physical parameters to a full spectrum. The middle row shows the independent coordinate folded into the input so the network predicts one scalar value. The bottom row shows vectorized calls over a coordinate grid and reshaping back to a spectrum or grid.</desc>
  <defs>
    <marker id="arrow" viewBox="0 0 10 10" refX="9" refY="5" markerWidth="8" markerHeight="8" orient="auto">
      <path d="M 0 0 L 10 5 L 0 10 z" fill="#1f2937"/>
    </marker>
    <style>
      .bg { fill: #ffffff; }
      .band { fill: #f8fafc; stroke: #cbd5e1; stroke-width: 1.4; }
      .input { fill: #dbeafe; stroke: #2563eb; stroke-width: 1.5; }
      .coord { fill: #fef3c7; stroke: #d97706; stroke-width: 1.5; }
      .network { fill: #dcfce7; stroke: #16a34a; stroke-width: 1.6; }
      .output { fill: #fee2e2; stroke: #dc2626; stroke-width: 1.5; }
      .matrix { fill: #f5f3ff; stroke: #7c3aed; stroke-width: 1.5; }
      .axis { stroke: #475569; stroke-width: 1.4; fill: none; }
      .curve { stroke: #dc2626; stroke-width: 2.5; fill: none; }
      .curve2 { stroke: #2563eb; stroke-width: 2.3; fill: none; }
      .gridline { stroke: #cbd5e1; stroke-width: 1; }
      .arrow { stroke: #1f2937; stroke-width: 2; fill: none; marker-end: url(#arrow); }
      .conn { stroke: #64748b; stroke-width: 1.15; opacity: 0.9; }
      .node { fill: #ffffff; stroke: #334155; stroke-width: 1.25; }
      .hidden { fill: #bbf7d0; stroke: #16a34a; stroke-width: 1.25; }
      .outnode { fill: #fecaca; stroke: #dc2626; stroke-width: 1.25; }
      .title { font-family: Arial, Helvetica, sans-serif; font-size: 23px; font-weight: 700; fill: #0f172a; }
      .subtitle { font-family: Arial, Helvetica, sans-serif; font-size: 14px; fill: #475569; }
      .section { font-family: Arial, Helvetica, sans-serif; font-size: 16px; font-weight: 700; fill: #0f172a; }
      .label { font-family: Arial, Helvetica, sans-serif; font-size: 14px; fill: #0f172a; }
      .small { font-family: Arial, Helvetica, sans-serif; font-size: 12px; fill: #475569; }
      .mono { font-family: "SFMono-Regular", Consolas, "Liberation Mono", monospace; font-size: 12px; fill: #0f172a; }
      .mono-small { font-family: "SFMono-Regular", Consolas, "Liberation Mono", monospace; font-size: 10.5px; fill: #334155; }
    </style>
  </defs>

  <rect class="bg" x="0" y="0" width="1180" height="820"/>
  <text class="title" x="40" y="40">From vector-output emulators to tiled scalar-output emulators</text>
  <text class="subtitle" x="40" y="63">The same physical model can be represented by changing what the neural network sees as input and output.</text>

  <!-- Row 1: Traditional vector-output emulator -->
  <rect class="band" x="40" y="90" width="1100" height="205" rx="10"/>
  <text class="section" x="65" y="122">1. Traditional vector-output approach</text>
  <text class="small" x="65" y="144">Physical variables go in; the network readout emits every redshift or k-bin at once.</text>

  <rect class="input" x="70" y="180" width="175" height="62" rx="7"/>
  <text class="label" x="94" y="204">physical variables</text>
  <text class="mono" x="101" y="226">theta_1 ... theta_n</text>
  <path class="arrow" d="M 260 211 L 365 211"/>

  <rect class="network" x="385" y="150" width="300" height="124" rx="10"/>
  <text class="label" x="503" y="172">network</text>
  <g>
    <!-- full adjacent-layer connections -->
    <line class="conn" x1="430" y1="199" x2="500" y2="187"/>
    <line class="conn" x1="430" y1="199" x2="500" y2="211"/>
    <line class="conn" x1="430" y1="199" x2="500" y2="235"/>
    <line class="conn" x1="430" y1="223" x2="500" y2="187"/>
    <line class="conn" x1="430" y1="223" x2="500" y2="211"/>
    <line class="conn" x1="430" y1="223" x2="500" y2="235"/>
    <line class="conn" x1="500" y1="187" x2="570" y2="181"/>
    <line class="conn" x1="500" y1="187" x2="570" y2="201"/>
    <line class="conn" x1="500" y1="187" x2="570" y2="221"/>
    <line class="conn" x1="500" y1="187" x2="570" y2="241"/>
    <line class="conn" x1="500" y1="211" x2="570" y2="181"/>
    <line class="conn" x1="500" y1="211" x2="570" y2="201"/>
    <line class="conn" x1="500" y1="211" x2="570" y2="221"/>
    <line class="conn" x1="500" y1="211" x2="570" y2="241"/>
    <line class="conn" x1="500" y1="235" x2="570" y2="181"/>
    <line class="conn" x1="500" y1="235" x2="570" y2="201"/>
    <line class="conn" x1="500" y1="235" x2="570" y2="221"/>
    <line class="conn" x1="500" y1="235" x2="570" y2="241"/>
    <line class="conn" x1="570" y1="181" x2="640" y2="181"/>
    <line class="conn" x1="570" y1="181" x2="640" y2="201"/>
    <line class="conn" x1="570" y1="181" x2="640" y2="221"/>
    <line class="conn" x1="570" y1="181" x2="640" y2="241"/>
    <line class="conn" x1="570" y1="201" x2="640" y2="181"/>
    <line class="conn" x1="570" y1="201" x2="640" y2="201"/>
    <line class="conn" x1="570" y1="201" x2="640" y2="221"/>
    <line class="conn" x1="570" y1="201" x2="640" y2="241"/>
    <line class="conn" x1="570" y1="221" x2="640" y2="181"/>
    <line class="conn" x1="570" y1="221" x2="640" y2="201"/>
    <line class="conn" x1="570" y1="221" x2="640" y2="221"/>
    <line class="conn" x1="570" y1="221" x2="640" y2="241"/>
    <line class="conn" x1="570" y1="241" x2="640" y2="181"/>
    <line class="conn" x1="570" y1="241" x2="640" y2="201"/>
    <line class="conn" x1="570" y1="241" x2="640" y2="221"/>
    <line class="conn" x1="570" y1="241" x2="640" y2="241"/>
  </g>
  <circle class="node" cx="430" cy="199" r="7"/>
  <circle class="node" cx="430" cy="223" r="7"/>
  <circle class="hidden" cx="500" cy="187" r="7"/>
  <circle class="hidden" cx="500" cy="211" r="7"/>
  <circle class="hidden" cx="500" cy="235" r="7"/>
  <circle class="hidden" cx="570" cy="181" r="7"/>
  <circle class="hidden" cx="570" cy="201" r="7"/>
  <circle class="hidden" cx="570" cy="221" r="7"/>
  <circle class="hidden" cx="570" cy="241" r="7"/>
  <circle class="outnode" cx="640" cy="181" r="6"/>
  <circle class="outnode" cx="640" cy="201" r="6"/>
  <circle class="outnode" cx="640" cy="221" r="6"/>
  <circle class="outnode" cx="640" cy="241" r="6"/>

  <path class="arrow" d="M 705 211 L 770 211"/>
  <rect class="output" x="790" y="145" width="310" height="132" rx="8"/>
  <text class="label" x="818" y="169">full spectrum/grid output</text>
  <line class="axis" x1="825" y1="244" x2="1060" y2="244"/>
  <line class="axis" x1="825" y1="244" x2="825" y2="190"/>
  <path class="curve" d="M 828 230 C 858 208, 895 192, 928 211 C 960 231, 991 204, 1020 205 C 1041 206, 1052 220, 1058 235"/>
  <circle class="outnode" cx="850" cy="216" r="4"/>
  <circle class="outnode" cx="884" cy="197" r="4"/>
  <circle class="outnode" cx="918" cy="206" r="4"/>
  <circle class="outnode" cx="952" cy="226" r="4"/>
  <circle class="outnode" cx="986" cy="209" r="4"/>
  <circle class="outnode" cx="1020" cy="205" r="4"/>
  <circle class="outnode" cx="1054" cy="225" r="4"/>
  <text class="mono-small" x="846" y="264">[y(z_1), ..., y(z_m)]</text>

  <!-- Row 2: Tiled scalar-output emulator -->
  <rect class="band" x="40" y="325" width="1100" height="205" rx="10"/>
  <text class="section" x="65" y="357">2. Fold the independent coordinate into the input</text>
  <text class="small" x="65" y="379">Each training row asks the same network for one value at one coordinate location.</text>

  <rect class="input" x="70" y="405" width="170" height="58" rx="7"/>
  <text class="label" x="94" y="429">physical variables</text>
  <text class="mono" x="101" y="450">theta_1 ... theta_n</text>
  <rect class="coord" x="260" y="405" width="135" height="58" rx="7"/>
  <text class="label" x="283" y="429">coordinate</text>
  <text class="mono" x="286" y="450">z_i or k_i</text>
  <path class="arrow" d="M 412 434 L 495 434"/>

  <rect class="matrix" x="510" y="396" width="195" height="76" rx="8"/>
  <text class="label" x="552" y="418">one model row</text>
  <text class="mono" x="531" y="444">[z_i, k_i, theta]</text>
  <text class="mono-small" x="543" y="462">or [z_i, theta]</text>
  <path class="arrow" d="M 722 434 L 775 434"/>

  <rect class="network" x="790" y="382" width="230" height="104" rx="10"/>
  <text class="label" x="891" y="403">MLP</text>
  <g>
    <line class="conn" x1="830" y1="422" x2="890" y2="410"/>
    <line class="conn" x1="830" y1="422" x2="890" y2="434"/>
    <line class="conn" x1="830" y1="422" x2="890" y2="458"/>
    <line class="conn" x1="830" y1="446" x2="890" y2="410"/>
    <line class="conn" x1="830" y1="446" x2="890" y2="434"/>
    <line class="conn" x1="830" y1="446" x2="890" y2="458"/>
    <line class="conn" x1="890" y1="410" x2="950" y2="434"/>
    <line class="conn" x1="890" y1="434" x2="950" y2="434"/>
    <line class="conn" x1="890" y1="458" x2="950" y2="434"/>
  </g>
  <circle class="node" cx="830" cy="422" r="7"/>
  <circle class="node" cx="830" cy="446" r="7"/>
  <circle class="hidden" cx="890" cy="410" r="7"/>
  <circle class="hidden" cx="890" cy="434" r="7"/>
  <circle class="hidden" cx="890" cy="458" r="7"/>
  <circle class="outnode" cx="950" cy="434" r="8"/>
  <path class="arrow" d="M 1035 434 L 1068 434"/>
  <rect class="output" x="1080" y="410" width="42" height="48" rx="8"/>
  <circle class="outnode" cx="1101" cy="429" r="7"/>
  <text class="mono-small" x="1091" y="452">y_i</text>

  <text class="mono" x="70" y="502">f([z_i, k_i, theta]) -> y_i</text>

  <!-- Row 3: Vectorized evaluation -->
  <rect class="band" x="40" y="560" width="1100" height="215" rx="10"/>
  <text class="section" x="65" y="592">3. Vectorize the scalar emulator over the requested grid</text>
  <text class="small" x="65" y="614">Repeat the physical variables over all coordinates, evaluate in one batch, then reshape.</text>

  <rect class="coord" x="70" y="645" width="145" height="68" rx="8"/>
  <text class="label" x="94" y="667">coordinate grid</text>
  <text class="mono" x="91" y="689">z_1 ... z_m</text>
  <text class="mono-small" x="91" y="705">and optional k grid</text>
  <path class="arrow" d="M 230 679 L 300 679"/>

  <rect class="matrix" x="315" y="628" width="245" height="104" rx="8"/>
  <text class="label" x="367" y="650">tiled input matrix</text>
  <line class="gridline" x1="337" y1="664" x2="538" y2="664"/>
  <line class="gridline" x1="337" y1="684" x2="538" y2="684"/>
  <line class="gridline" x1="337" y1="704" x2="538" y2="704"/>
  <text class="mono-small" x="343" y="678">[z_1, k_1, theta]</text>
  <text class="mono-small" x="343" y="698">[z_2, k_1, theta]</text>
  <text class="mono-small" x="343" y="718">[ ... repeated rows ... ]</text>
  <path class="arrow" d="M 575 679 L 635 679"/>

  <rect class="network" x="650" y="622" width="250" height="114" rx="10"/>
  <text class="label" x="731" y="645">batched MLP</text>
  <g>
    <line class="conn" x1="695" y1="672" x2="765" y2="660"/>
    <line class="conn" x1="695" y1="672" x2="765" y2="684"/>
    <line class="conn" x1="695" y1="672" x2="765" y2="708"/>
    <line class="conn" x1="695" y1="696" x2="765" y2="660"/>
    <line class="conn" x1="695" y1="696" x2="765" y2="684"/>
    <line class="conn" x1="695" y1="696" x2="765" y2="708"/>
    <line class="conn" x1="765" y1="660" x2="835" y2="672"/>
    <line class="conn" x1="765" y1="660" x2="835" y2="696"/>
    <line class="conn" x1="765" y1="684" x2="835" y2="672"/>
    <line class="conn" x1="765" y1="684" x2="835" y2="696"/>
    <line class="conn" x1="765" y1="708" x2="835" y2="672"/>
    <line class="conn" x1="765" y1="708" x2="835" y2="696"/>
  </g>
  <circle class="node" cx="695" cy="672" r="7"/>
  <circle class="node" cx="695" cy="696" r="7"/>
  <circle class="hidden" cx="765" cy="660" r="7"/>
  <circle class="hidden" cx="765" cy="684" r="7"/>
  <circle class="hidden" cx="765" cy="708" r="7"/>
  <circle class="outnode" cx="835" cy="672" r="7"/>
  <circle class="outnode" cx="835" cy="696" r="7"/>
  <text class="mono-small" x="716" y="728">vmap / jit over fixed-shape rows</text>
  <path class="arrow" d="M 915 679 L 970 679"/>

  <rect class="output" x="985" y="626" width="120" height="106" rx="8"/>
  <text class="label" x="1009" y="648">reshape</text>
  <line class="axis" x1="1012" y1="704" x2="1080" y2="704"/>
  <line class="axis" x1="1012" y1="704" x2="1012" y2="668"/>
  <path class="curve2" d="M 1014 696 C 1028 680, 1042 672, 1054 688 C 1065 701, 1072 684, 1080 693"/>
  <text class="mono-small" x="1005" y="724">spectrum/grid</text>

  <text class="small" x="70" y="755">The neural network predicts one scalar per row; vectorization turns many scalar calls into one batched operation.</text>
</svg>
