<svg xmlns="http://www.w3.org/2000/svg" width="1040" height="650" viewBox="0 0 1040 650" role="img" aria-labelledby="title desc">
  <title id="title">Preprocessing workflow for T21 and Delta21 emulators</title>
  <desc id="desc">Workflow diagram from raw 21cmSPACE files through deterministic transforms, fixed-grid interpolation, scaling, flattening, and prepared train validation test arrays.</desc>
  <defs>
    <style>
      .bg { fill: #f7f9fb; }
      .box { fill: #ffffff; stroke: #2f4050; stroke-width: 2; rx: 8; }
      .box-blue { fill: #e8f2ff; stroke: #2463a6; stroke-width: 2; rx: 8; }
      .box-green { fill: #eaf7ef; stroke: #2f7d4f; stroke-width: 2; rx: 8; }
      .box-orange { fill: #fff3e4; stroke: #b46b15; stroke-width: 2; rx: 8; }
      .text { font-family: Arial, Helvetica, sans-serif; fill: #1f2933; font-size: 15px; }
      .title { font-family: Arial, Helvetica, sans-serif; fill: #111827; font-size: 22px; font-weight: 700; }
      .label { font-family: Arial, Helvetica, sans-serif; fill: #334155; font-size: 13px; }
      .small { font-family: Arial, Helvetica, sans-serif; fill: #475569; font-size: 12px; }
      .arrow { stroke: #334155; stroke-width: 2.2; fill: none; marker-end: url(#arrowhead); }
      .lane { fill: none; stroke: #cbd5e1; stroke-width: 1.5; stroke-dasharray: 6 6; rx: 10; }
    </style>
    <marker id="arrowhead" markerWidth="10" markerHeight="8" refX="9" refY="4" orient="auto">
      <path d="M0,0 L10,4 L0,8 Z" fill="#334155" />
    </marker>
  </defs>

  <rect class="bg" x="0" y="0" width="1040" height="650" />
  <text class="title" x="40" y="42">Deterministic preprocessing and normalisation flow</text>
  <text class="label" x="40" y="68">The same metadata is reused by training, checkpointing, and inference.</text>

  <rect class="lane" x="25" y="95" width="990" height="160" />
  <text class="label" x="42" y="120">Raw data and contracts</text>

  <rect class="box-blue" x="50" y="145" width="190" height="72" />
  <text class="text" x="70" y="173">21cmSPACE files</text>
  <text class="small" x="70" y="195">axes, parameters, targets</text>

  <rect class="box" x="300" y="130" width="190" height="102" />
  <text class="text" x="320" y="158">Load and clean</text>
  <text class="small" x="320" y="180">drop NaN simulations</text>
  <text class="small" x="320" y="200">convert k to k / h</text>

  <rect class="box" x="550" y="130" width="190" height="102" />
  <text class="text" x="570" y="158">EmulatorSpec</text>
  <text class="small" x="570" y="180">axis order</text>
  <text class="small" x="570" y="200">parameter order</text>
  <text class="small" x="570" y="220">target transform</text>

  <rect class="box" x="800" y="130" width="170" height="102" />
  <text class="text" x="820" y="158">Prepare params</text>
  <text class="small" x="820" y="180">drop unused cols</text>
  <text class="small" x="820" y="200">log10 selected</text>
  <text class="small" x="820" y="220">record discrete sets</text>

  <path class="arrow" d="M240 181 H300" />
  <path class="arrow" d="M490 181 H550" />
  <path class="arrow" d="M740 181 H800" />

  <rect class="lane" x="25" y="285" width="990" height="175" />
  <text class="label" x="42" y="310">Deterministic transforms</text>

  <rect class="box-orange" x="50" y="335" width="190" height="86" />
  <text class="text" x="70" y="362">Target transform</text>
  <text class="small" x="70" y="384">T21: identity</text>
  <text class="small" x="70" y="404">Delta21: log10(y + 1e-8)</text>

  <rect class="box" x="300" y="335" width="190" height="86" />
  <text class="text" x="320" y="362">Split simulations</text>
  <text class="small" x="320" y="384">train / validation / test</text>
  <text class="small" x="320" y="404">fixed random seed</text>

  <rect class="box-green" x="550" y="335" width="190" height="86" />
  <text class="text" x="570" y="362">Axis grids</text>
  <text class="small" x="570" y="384">T21: 200 z</text>
  <text class="small" x="570" y="404">Delta21: 50 z x 50 log10k</text>

  <rect class="box" x="800" y="335" width="170" height="86" />
  <text class="text" x="820" y="362">Interpolate</text>
  <text class="small" x="820" y="384">linear interpolation</text>
  <text class="small" x="820" y="404">shared fixed grid</text>

  <path class="arrow" d="M885 232 V270 H145 V335" />
  <path class="arrow" d="M240 378 H300" />
  <path class="arrow" d="M490 378 H550" />
  <path class="arrow" d="M740 378 H800" />

  <rect class="lane" x="25" y="490" width="990" height="125" />
  <text class="label" x="42" y="515">Normalised scalar rows</text>

  <rect class="box-orange" x="50" y="535" width="190" height="58" />
  <text class="text" x="70" y="560">Scale targets</text>
  <text class="small" x="70" y="580">divide by global train std</text>

  <rect class="box-green" x="300" y="535" width="190" height="58" />
  <text class="text" x="320" y="560">Flatten grids</text>
  <text class="small" x="320" y="580">axis coords + params -> scalar</text>

  <rect class="box" x="550" y="535" width="190" height="58" />
  <text class="text" x="570" y="560">Scale features</text>
  <text class="small" x="570" y="580">zscore or minmax 0 to 1</text>

  <rect class="box-blue" x="800" y="535" width="170" height="58" />
  <text class="text" x="820" y="560">PreparedSplit</text>
  <text class="small" x="820" y="580">arrays plus scaling metadata</text>

  <path class="arrow" d="M885 421 V470 H145 V535" />
  <path class="arrow" d="M240 564 H300" />
  <path class="arrow" d="M490 564 H550" />
  <path class="arrow" d="M740 564 H800" />
</svg>
