<svg xmlns="http://www.w3.org/2000/svg" width="1000" height="620" viewBox="0 0 1000 620" role="img" aria-labelledby="title desc">
  <title id="title">Mini-batch loading and asynchronous prefetching</title>
  <desc id="desc">A two-panel comparison. Both panels use Host, Move, and GPU lanes. The top panel shows strictly sequential preparation, transfer, and training. The bottom panel shows asynchronous prefetching where training blocks are continuous and future batches are prepared and moved during current training.</desc>
  <defs>
    <marker id="arrow" viewBox="0 0 10 10" refX="9" refY="5" markerWidth="8" markerHeight="8" orient="auto">
      <path d="M 0 0 L 10 5 L 0 10 z" fill="#1f2937"/>
    </marker>
    <style>
      .bg { fill: #ffffff; }
      .panel { fill: #f8fafc; stroke: #cbd5e1; stroke-width: 1.4; }
      .prepare { fill: #dbeafe; stroke: #2563eb; stroke-width: 1.5; }
      .move { fill: #f5f3ff; stroke: #7c3aed; stroke-width: 1.5; }
      .train { fill: #dcfce7; stroke: #16a34a; stroke-width: 1.5; }
      .idle { fill: #fee2e2; stroke: #dc2626; stroke-width: 1.2; opacity: 0.85; }
      .axis { stroke: #64748b; stroke-width: 1.6; marker-end: url(#arrow); }
      .lane { stroke: #e2e8f0; stroke-width: 1; }
      .arrow { stroke: #1f2937; stroke-width: 2.2; fill: none; marker-end: url(#arrow); }
      .title { font-family: Arial, Helvetica, sans-serif; font-size: 23px; font-weight: 700; fill: #0f172a; }
      .section { font-family: Arial, Helvetica, sans-serif; font-size: 16px; font-weight: 700; fill: #0f172a; }
      .label { font-family: Arial, Helvetica, sans-serif; font-size: 14px; font-weight: 700; fill: #0f172a; }
      .text { font-family: Arial, Helvetica, sans-serif; font-size: 13px; fill: #0f172a; }
      .small { font-family: Arial, Helvetica, sans-serif; font-size: 12px; fill: #475569; }
    </style>
  </defs>

  <rect class="bg" x="0" y="0" width="1000" height="620"/>
  <text class="title" x="40" y="44">Mini-batch Training: Sequential Loading vs Asynchronous Prefetching</text>

  <rect class="panel" x="40" y="75" width="920" height="225" rx="10"/>
  <text class="section" x="65" y="108">Inefficient sequential mini-batches</text>
  <text class="small" x="65" y="130">Only one stage runs at a time: prepare, then move, then train.</text>
  <line class="axis" x1="165" y1="150" x2="910" y2="150"/>
  <text class="small" x="887" y="139">time</text>
  <line class="lane" x1="160" y1="181" x2="900" y2="181"/>
  <line class="lane" x1="160" y1="222" x2="900" y2="222"/>
  <line class="lane" x1="160" y1="263" x2="900" y2="263"/>

  <text class="label" x="70" y="187">Host</text>
  <rect class="prepare" x="170" y="164" width="80" height="34" rx="5"/>
  <text class="text" x="189" y="186">Prepare</text>
  <rect class="prepare" x="415" y="164" width="80" height="34" rx="5"/>
  <text class="text" x="434" y="186">Prepare</text>
  <rect class="prepare" x="660" y="164" width="80" height="34" rx="5"/>
  <text class="text" x="679" y="186">Prepare</text>

  <text class="label" x="70" y="228">Move</text>
  <rect class="move" x="250" y="205" width="45" height="34" rx="5"/>
  <text class="text" x="259" y="227">Move</text>
  <rect class="move" x="495" y="205" width="45" height="34" rx="5"/>
  <text class="text" x="504" y="227">Move</text>
  <rect class="move" x="740" y="205" width="45" height="34" rx="5"/>
  <text class="text" x="749" y="227">Move</text>

  <text class="label" x="70" y="269">GPU</text>
  <rect class="idle" x="170" y="246" width="125" height="34" rx="5"/>
  <text class="text" x="196" y="268">GPU idle</text>
  <rect class="train" x="295" y="246" width="120" height="34" rx="5"/>
  <text class="text" x="340" y="268">Train</text>
  <rect class="idle" x="415" y="246" width="125" height="34" rx="5"/>
  <text class="text" x="441" y="268">GPU idle</text>
  <rect class="train" x="540" y="246" width="120" height="34" rx="5"/>
  <text class="text" x="585" y="268">Train</text>
  <rect class="idle" x="660" y="246" width="125" height="34" rx="5"/>
  <text class="text" x="686" y="268">GPU idle</text>
  <rect class="train" x="785" y="246" width="120" height="34" rx="5"/>
  <text class="text" x="830" y="268">Train</text>

  <rect class="panel" x="40" y="335" width="920" height="230" rx="10"/>
  <text class="section" x="65" y="368">Asynchronous prefetching</text>
  <text class="small" x="65" y="390">Future batches are prepared and moved while the current batch trains.</text>
  <line class="axis" x1="165" y1="410" x2="910" y2="410"/>
  <text class="small" x="887" y="399">time</text>
  <line class="lane" x1="160" y1="441" x2="900" y2="441"/>
  <line class="lane" x1="160" y1="482" x2="900" y2="482"/>
  <line class="lane" x1="160" y1="523" x2="900" y2="523"/>

  <text class="label" x="70" y="447">Host</text>
  <rect class="prepare" x="170" y="424" width="80" height="34" rx="5"/>
  <text class="text" x="189" y="446">Prepare</text>
  <rect class="prepare" x="290" y="424" width="80" height="34" rx="5"/>
  <text class="text" x="309" y="446">Prepare</text>
  <rect class="prepare" x="410" y="424" width="80" height="34" rx="5"/>
  <text class="text" x="429" y="446">Prepare</text>
  <rect class="prepare" x="530" y="424" width="80" height="34" rx="5"/>
  <text class="text" x="549" y="446">Prepare</text>
  <rect class="prepare" x="650" y="424" width="80" height="34" rx="5"/>
  <text class="text" x="669" y="446">Prepare</text>

  <text class="label" x="70" y="488">Move</text>
  <rect class="move" x="250" y="465" width="45" height="34" rx="5"/>
  <text class="text" x="259" y="487">Move</text>
  <rect class="move" x="370" y="465" width="45" height="34" rx="5"/>
  <text class="text" x="379" y="487">Move</text>
  <rect class="move" x="490" y="465" width="45" height="34" rx="5"/>
  <text class="text" x="499" y="487">Move</text>
  <rect class="move" x="610" y="465" width="45" height="34" rx="5"/>
  <text class="text" x="619" y="487">Move</text>
  <rect class="move" x="730" y="465" width="45" height="34" rx="5"/>
  <text class="text" x="739" y="487">Move</text>

  <text class="label" x="70" y="529">GPU</text>
  <rect class="train" x="295" y="506" width="120" height="34" rx="5"/>
  <text class="text" x="340" y="528">Train</text>
  <rect class="train" x="415" y="506" width="120" height="34" rx="5"/>
  <text class="text" x="460" y="528">Train</text>
  <rect class="train" x="535" y="506" width="120" height="34" rx="5"/>
  <text class="text" x="580" y="528">Train</text>
  <rect class="train" x="655" y="506" width="120" height="34" rx="5"/>
  <text class="text" x="700" y="528">Train</text>
  <rect class="train" x="775" y="506" width="120" height="34" rx="5"/>
  <text class="text" x="820" y="528">Train</text>

  <line class="arrow" x1="815" y1="285" x2="815" y2="325"/>
  <text class="label" x="840" y="300">Higher throughput</text>
  <text class="small" x="840" y="318">less wasted GPU time</text>

</svg>
