<svg xmlns="http://www.w3.org/2000/svg" width="1000" height="560" viewBox="0 0 1000 560" role="img" aria-labelledby="title desc">
  <title id="title">Mini-batch loading and asynchronous prefetching</title>
  <desc id="desc">A two-panel comparison. Both panels use Host, Move, and GPU lanes. The top panel shows strictly sequential preparation, transfer, and training. The bottom panel shows asynchronous prefetching where training blocks are continuous and future batches are prepared and moved during current training.</desc>
  <defs>
    <marker id="arrow" viewBox="0 0 10 10" refX="9" refY="5" markerWidth="8" markerHeight="8" orient="auto">
      <path d="M 0 0 L 10 5 L 0 10 z" fill="#1f2937"/>
    </marker>
    <style>
      .bg { fill: #ffffff; }
      .panel { fill: #f8fafc; stroke: #cbd5e1; stroke-width: 1.4; }
      .prepare { fill: #dbeafe; stroke: #2563eb; stroke-width: 1.5; }
      .move { fill: #f5f3ff; stroke: #7c3aed; stroke-width: 1.5; }
      .train { fill: #dcfce7; stroke: #16a34a; stroke-width: 1.5; }
      .idle { fill: #fee2e2; stroke: #dc2626; stroke-width: 1.2; opacity: 0.85; }
      .axis { stroke: #64748b; stroke-width: 1.6; marker-end: url(#arrow); }
      .lane { stroke: #e2e8f0; stroke-width: 1; }
      .arrow { stroke: #1f2937; stroke-width: 2.2; fill: none; marker-end: url(#arrow); }
      .title { font-family: Arial, Helvetica, sans-serif; font-size: 23px; font-weight: 700; fill: #0f172a; }
      .section { font-family: Arial, Helvetica, sans-serif; font-size: 16px; font-weight: 700; fill: #0f172a; }
      .label { font-family: Arial, Helvetica, sans-serif; font-size: 14px; font-weight: 700; fill: #0f172a; }
      .text { font-family: Arial, Helvetica, sans-serif; font-size: 13px; fill: #0f172a; }
      .small { font-family: Arial, Helvetica, sans-serif; font-size: 12px; fill: #475569; }
    </style>
  </defs>

  <rect class="bg" x="0" y="0" width="1000" height="560"/>
  <text class="title" x="40" y="44">Mini-batch Training: Sequential Loading vs Asynchronous Prefetching</text>

  <rect class="panel" x="40" y="75" width="920" height="205" rx="10"/>
  <text class="section" x="65" y="108">Inefficient sequential mini-batches</text>
  <text class="small" x="65" y="130">Only one stage runs at a time: prepare, then move, then train.</text>
  <line class="axis" x1="165" y1="150" x2="910" y2="150"/>
  <text class="small" x="887" y="139">time</text>
  <line class="lane" x1="160" y1="181" x2="900" y2="181"/>
  <line class="lane" x1="160" y1="222" x2="900" y2="222"/>
  <line class="lane" x1="160" y1="263" x2="900" y2="263"/>

  <text class="label" x="70" y="187">Host</text>
  <rect class="prepare" x="170" y="164" width="90" height="34" rx="5"/>
  <text class="text" x="192" y="186">Prepare</text>
  <rect class="prepare" x="460" y="164" width="90" height="34" rx="5"/>
  <text class="text" x="482" y="186">Prepare</text>

  <text class="label" x="70" y="228">Move</text>
  <rect class="move" x="260" y="205" width="80" height="34" rx="5"/>
  <text class="text" x="283" y="227">Move</text>
  <rect class="move" x="550" y="205" width="80" height="34" rx="5"/>
  <text class="text" x="573" y="227">Move</text>

  <text class="label" x="70" y="269">GPU</text>
  <rect class="idle" x="170" y="246" width="170" height="34" rx="5"/>
  <text class="text" x="218" y="268">GPU idle</text>
  <rect class="train" x="340" y="246" width="120" height="34" rx="5"/>
  <text class="text" x="385" y="268">Train</text>
  <rect class="idle" x="460" y="246" width="170" height="34" rx="5"/>
  <text class="text" x="508" y="268">GPU idle</text>
  <rect class="train" x="630" y="246" width="120" height="34" rx="5"/>
  <text class="text" x="675" y="268">Train</text>

  <text class="small" x="180" y="156">Batch 0</text>
  <text class="small" x="470" y="156">Batch 1</text>

  <rect class="panel" x="40" y="315" width="920" height="200" rx="10"/>
  <text class="section" x="65" y="348">Asynchronous prefetching</text>
  <text class="small" x="65" y="370">Future batches are prepared and moved while the current batch trains.</text>
  <line class="axis" x1="165" y1="390" x2="910" y2="390"/>
  <text class="small" x="887" y="379">time</text>
  <line class="lane" x1="160" y1="421" x2="900" y2="421"/>
  <line class="lane" x1="160" y1="462" x2="900" y2="462"/>
  <line class="lane" x1="160" y1="503" x2="900" y2="503"/>

  <text class="label" x="70" y="427">Host</text>
  <rect class="prepare" x="170" y="404" width="90" height="34" rx="5"/>
  <text class="text" x="192" y="426">Prepare</text>
  <rect class="prepare" x="345" y="404" width="80" height="34" rx="5"/>
  <text class="text" x="364" y="426">Prepare</text>
  <rect class="prepare" x="475" y="404" width="80" height="34" rx="5"/>
  <text class="text" x="494" y="426">Prepare</text>
  <rect class="prepare" x="605" y="404" width="80" height="34" rx="5"/>
  <text class="text" x="624" y="426">Prepare</text>

  <text class="label" x="70" y="468">Move</text>
  <rect class="move" x="260" y="445" width="80" height="34" rx="5"/>
  <text class="text" x="283" y="467">Move</text>
  <rect class="move" x="425" y="445" width="45" height="34" rx="5"/>
  <text class="text" x="434" y="467">Move</text>
  <rect class="move" x="555" y="445" width="45" height="34" rx="5"/>
  <text class="text" x="564" y="467">Move</text>
  <rect class="move" x="685" y="445" width="45" height="34" rx="5"/>
  <text class="text" x="694" y="467">Move</text>

  <text class="label" x="70" y="509">GPU</text>
  <rect class="train" x="340" y="486" width="130" height="34" rx="5"/>
  <text class="text" x="390" y="508">Train</text>
  <rect class="train" x="470" y="486" width="130" height="34" rx="5"/>
  <text class="text" x="520" y="508">Train</text>
  <rect class="train" x="600" y="486" width="130" height="34" rx="5"/>
  <text class="text" x="650" y="508">Train</text>
  <rect class="train" x="730" y="486" width="130" height="34" rx="5"/>
  <text class="text" x="780" y="508">Train</text>

  <path class="arrow" d="M 790 345 C 850 366, 875 420, 865 485"/>
  <text class="label" x="760" y="335">Higher throughput</text>
  <text class="small" x="760" y="535">less wasted GPU time</text>

  <rect class="prepare" x="56" y="532" width="16" height="12" rx="2"/>
  <text class="small" x="78" y="543">Prepare on host</text>
  <rect class="move" x="210" y="532" width="16" height="12" rx="2"/>
  <text class="small" x="232" y="543">Move with device_put</text>
  <rect class="train" x="395" y="532" width="16" height="12" rx="2"/>
  <text class="small" x="417" y="543">Train with jitted step</text>
</svg>
